<svg xmlns="http://www.w3.org/2000/svg" width="18.945" height="20" viewBox="0 0 18.945 20"><defs><style>.a{fill:#f97d00;}</style></defs><path class="a" d="M.633-2.5V-20.391H2.742v1.582a1.5,1.5,0,0,0,.469,1.094,1.521,1.521,0,0,0,1.113.469H5.359a1.521,1.521,0,0,0,1.113-.469,1.5,1.5,0,0,0,.469-1.094v-1.582H13.27v1.582a1.5,1.5,0,0,0,.469,1.094,1.521,1.521,0,0,0,1.113.469h1.035A1.521,1.521,0,0,0,17-17.715a1.5,1.5,0,0,0,.469-1.094v-1.582h2.109V-2.5ZM18.523-14.082H1.688V-3.555H18.523ZM4.852-7.754H2.742V-9.863H4.852Zm0,3.145H2.742V-6.719H4.852ZM8-7.754H5.887V-9.863H8ZM8-4.609H5.887V-6.719H8Zm3.164-6.309H9.051v-2.109H11.16Zm0,3.164H9.051V-9.863H11.16Zm0,3.145H9.051V-6.719H11.16Zm3.164-6.309H12.215v-2.109h2.109Zm0,3.164H12.215V-9.863h2.109Zm0,3.145H12.215V-6.719h2.109Zm3.145-6.309h-2.09v-2.109h2.09Zm0,3.164h-2.09V-9.863h2.09ZM15.477-18.281h-.215a.832.832,0,0,1-.664-.332,1.113,1.113,0,0,1-.273-.723v-2.109a1.072,1.072,0,0,1,.273-.762.875.875,0,0,1,.664-.293h.215a.832.832,0,0,1,.664.332,1.113,1.113,0,0,1,.273.723v1.992a1.287,1.287,0,0,1-.273.83.824.824,0,0,1-.664.342Zm-10.527,0H4.734a.832.832,0,0,1-.664-.332,1.113,1.113,0,0,1-.273-.723v-2.109a1.072,1.072,0,0,1,.273-.762.875.875,0,0,1,.664-.293h.215a.832.832,0,0,1,.664.332,1.113,1.113,0,0,1,.273.723v1.992a1.287,1.287,0,0,1-.273.83.824.824,0,0,1-.664.342Z" transform="translate(-0.633 22.5)"/></svg>