<svg xmlns="http://www.w3.org/2000/svg" width="20" height="16.715" viewBox="0 0 20 16.715"><defs><style>.a,.c{fill:#f97d00;}.b{fill:#fff;stroke:#f97d00;}.c{font-size:8px;font-family:MyriadPro-Bold, Myriad Pro;font-weight:700;}.d{stroke:none;}.e{fill:none;}</style></defs><g transform="translate(0 0)"><g transform="translate(0 0)"><path class="a" d="M150.115,48.957a1.106,1.106,0,0,0-.293.041l-1.115.306-1.158-2.816a2.525,2.525,0,0,0-2.161-1.446h-8.743a2.526,2.526,0,0,0-2.161,1.446L133.327,49.3l-1.1-.3a1.129,1.129,0,0,0-.293-.04.9.9,0,0,0-.909.955v.656a1.175,1.175,0,0,0,1.174,1.172h.126l-.187.454a8.788,8.788,0,0,0-.553,2.8v5.594a1.175,1.175,0,0,0,1.174,1.172h1.534a1.174,1.174,0,0,0,1.174-1.172v-1.4h11.1v1.4a1.174,1.174,0,0,0,1.174,1.172h1.533a1.174,1.174,0,0,0,1.174-1.172V54.992a8.777,8.777,0,0,0-.553-2.8l-.187-.454h.142a1.175,1.175,0,0,0,1.174-1.172v-.656A.9.9,0,0,0,150.115,48.957ZM134.169,51.1l1.751-4.259a1.518,1.518,0,0,1,1.3-.868h7.6a1.519,1.519,0,0,1,1.3.868l1.751,4.259a.585.585,0,0,1-.583.867H134.752A.585.585,0,0,1,134.169,51.1Zm3.909,5.387a.47.47,0,0,1-.469.469h-3.327a.471.471,0,0,1-.47-.469V54.9a.471.471,0,0,1,.47-.469h3.327a.47.47,0,0,1,.469.469Zm10.11,0a.47.47,0,0,1-.469.469h-3.327a.47.47,0,0,1-.469-.469V54.9a.47.47,0,0,1,.469-.469h3.327a.47.47,0,0,1,.469.469Z" transform="translate(-131.024 -45.042)"/><g class="b" transform="translate(0 4.393)"><circle class="d" cx="6.04" cy="6.04" r="6.04"/><circle class="e" cx="6.04" cy="6.04" r="5.54"/></g></g><text class="c" transform="translate(6 12.589)"><tspan x="-3.384" y="0">M</tspan></text></g></svg>