<svg xmlns="http://www.w3.org/2000/svg" xmlns:xlink="http://www.w3.org/1999/xlink" width="122.564" height="33" viewBox="0 0 122.564 33"><defs><style>.a{fill:#fff;}.b{fill:#858585;font-size:14px;font-family:RobotoSlab-Regular, Roboto Slab;letter-spacing:0.01em;}.c{font-family:RobotoSlab-Bold, Roboto Slab;font-weight:700;}.d{clip-path:url(#a);}.e{fill:#f97d00;}</style><clipPath id="a"><rect class="a" width="21.327" height="30"/></clipPath></defs><text class="b" transform="translate(37.564 15)"><tspan x="0" y="0">Relação com</tspan><tspan class="c"><tspan x="0" y="14">investidores</tspan></tspan></text><g class="d" transform="translate(0 3)"><g transform="translate(0 5.125)"><path class="e" d="M1916.963,1075.783v.347a.358.358,0,0,1-.368.347h-25.119a1.435,1.435,0,0,1-1.477-1.387v-19.743a.359.359,0,0,1,.37-.347h.37a.357.357,0,0,1,.368.347v19.743a.359.359,0,0,0,.37.347H1916.6a.358.358,0,0,1,.368.347Zm-10.21-16.3-4.343,3.5a.393.393,0,0,1-.431.034l-4.72-2.654a.388.388,0,0,0-.446.047l-4.484,4.025a.338.338,0,0,0-.114.25v3.926a.372.372,0,0,0,.626.249l3.954-3.565a.387.387,0,0,1,.444-.048l5.432,3.017a.393.393,0,0,0,.4-.012l4.413-2.86a.361.361,0,0,1,.117-.051l8.717-2.111a.35.35,0,0,0,.278-.335v-5.546a.366.366,0,0,0-.469-.333l-9.231,2.4a.378.378,0,0,0-.143.071Zm.747,7.259-4.359,2.855a.391.391,0,0,1-.4.015l-5.485-3.019a.392.392,0,0,0-.444.049l-4.484,4.026a.339.339,0,0,0-.114.25v3.135a.36.36,0,0,0,.37.347h23.639a.36.36,0,0,0,.37-.347v-9.093a.364.364,0,0,0-.462-.335l-8.515,2.065a.379.379,0,0,0-.119.051Zm0,0" transform="translate(-1890 -1055)"/></g></g></svg>