<svg xmlns="http://www.w3.org/2000/svg" width="118.214" height="62.072" viewBox="0 0 118.214 62.072"><defs><style>.a{fill:#1d1c19;}.b{fill:#fff;}.c{fill:#fefefc;}</style></defs><g transform="translate(-196 -34)"><path class="a" d="M75.254,19.58H68.983L61.664,26.8l1.927-7.215H58.639l-1.293,4.888a9.724,9.724,0,0,1-.866,10.991,9.4,9.4,0,0,1-2.159,2.133h4.5l2.069-3.245,2.069-3.711L65.543,37.6h5.3L66.836,27.467Z" transform="translate(206.745 38.452)"/><path class="a" d="M72.823,19.7h6.232l-.53,2a6.879,6.879,0,0,1,4.991-2.392,4.551,4.551,0,0,1,4.616,3.129A8.379,8.379,0,0,1,94.6,19.312c3.375,0,5.172,2.069,5.172,5.366a13.552,13.552,0,0,1-.543,3.284L96.64,37.738H90.447l2.444-9.413a6.219,6.219,0,0,0,.233-1.461,1.694,1.694,0,0,0-1.849-1.927c-1.668,0-2.677,1.2-3.258,3.245l-2.56,9.53H79.223l2.5-9.413a6.219,6.219,0,0,0,.233-1.461,1.694,1.694,0,0,0-1.9-1.9c-1.668,0-2.677,1.2-3.258,3.245l-2.586,9.53H68Z" transform="translate(210.753 38.37)"/><path class="b" d="M55.963,28.612a3.763,3.763,0,0,0-3.879-4.176c-3.116,0-5.172,3.427-5.172,6.013a3.763,3.763,0,0,0,3.879,4.189c3.129,0,5.172-3.426,5.172-6.025M41.83,30.6A10.784,10.784,0,0,1,52.278,20c5.366,0,8.7,3.595,8.7,8.5A10.771,10.771,0,0,1,50.532,39.111c-5.366,0-8.7-3.582-8.7-8.482" transform="translate(203.085 38.575)"/><path class="b" d="M23.73,37.262H4.8l.931-3.608,11.223-10.1H8.692L9.83,19.38H24.8l-.944,3.608L12.636,33.112h9.672a7.034,7.034,0,0,0,3.879,4.176Z" transform="translate(192.234 38.393)"/><path class="b" d="M52.612,19.773A10.551,10.551,0,0,0,44.5,25.578c-2.832.168-4.668,1.655-5.573,5.172L37.3,37.216H32.26l4.306-16.732h5.043l-.75,2.935c1.371-2.069,5.741-3.672,9.775-3.879a13.887,13.887,0,0,1,1.978.168" transform="translate(200.281 38.44)"/><path class="b" d="M30.909,26.9a3.776,3.776,0,0,0,.142-.931,2.121,2.121,0,0,0-2.315-2.2,4.228,4.228,0,0,0-3.879,3.1h6.064Zm8.676,6.672-1.009,3.737H27.069c-5,0-8.068-2.974-8.068-7.629A10.228,10.228,0,0,1,29.15,19.335a6.685,6.685,0,0,1,7.2,7.112,10.59,10.59,0,0,1-.647,3.53H24.47c-.284,1.965,2.586,3.672,4.6,3.672Z" transform="translate(196.395 38.373)"/><path class="c" d="M82.084,45.8a2.121,2.121,0,0,1,0,.556,1.293,1.293,0,0,1-1.293,1.112c-.905,0-1.539-.647-1.539-1.784s.478-1.849,1.565-1.849a1.293,1.293,0,0,1,1.293,1.125,1.591,1.591,0,0,1,0,.362Zm0-7.616v4.176h0a2.586,2.586,0,0,0-2.224-.763,3.879,3.879,0,0,0-3.776,4.2,3.724,3.724,0,0,0,3.595,4.086,2.909,2.909,0,0,0,2.586-1.293h0l.1,1.138h2.664V38.18H82.058Z" transform="translate(213.117 43.902)"/><path class="c" d="M88.582,45.776a1.732,1.732,0,0,1,0,.44,1.164,1.164,0,0,1-1.06.828c-.543,0-.84-.259-.84-.7,0-.634.634-.97,1.94-.97Zm2.871-1.487c0-2.108-1.138-3.478-3.8-3.478a7.37,7.37,0,0,0-3.4.737l.53,1.9a5.172,5.172,0,0,1,2.353-.634c1.151,0,1.293.362,1.293.634h0c-2.935,0-4.8.97-4.8,3.1a2.586,2.586,0,0,0,2.728,2.5,2.922,2.922,0,0,0,2.276-.866h0l.155.672h2.677a11.416,11.416,0,0,1-.129-1.965V44.3Z" transform="translate(215.333 44.672)"/><path class="b" d="M49.295,43.674c0-1.112,0-2.043-.065-2.741H51.7l.1,1.009h.065a2.78,2.78,0,0,1,2.431-1.2,2.353,2.353,0,0,1,2.237,1.293h0a3.478,3.478,0,0,1,1.151-1,3.039,3.039,0,0,1,1.487-.336c1.733,0,2.832,1.293,2.832,3.53v4.616H59.147V44.657c0-1.034-.336-1.565-1.034-1.565a1,1,0,0,0-.944.724,2.1,2.1,0,0,0-.091.608v4.422h-2.87V44.657c0-1.034-.336-1.565-1.034-1.565a1.021,1.021,0,0,0-.944.7,1.487,1.487,0,0,0-.091.595v4.37H49.269V43.674Z" transform="translate(205.253 44.64)"/><path class="b" d="M64.077,46.889c-.97,0-1.409-.905-1.409-2.056s.375-2.017,1.409-2.017,1.293.918,1.293,2.017C65.37,46.127,64.9,46.889,64.077,46.889Zm0,2.095a4.2,4.2,0,0,0,4.538-4.254,4.047,4.047,0,0,0-4.37-4.047c-2.987,0-4.655,1.784-4.655,4.2a4.125,4.125,0,0,0,4.487,4.1Z" transform="translate(208.289 44.631)"/><path class="b" d="M69.494,40.84l.97,3.427c.168.582.272,1.151.375,1.707h0c.1-.569.194-1.1.336-1.707l.892-3.427h3.181l-3,7.965H69.2L66.21,40.9Z" transform="translate(210.229 44.681)"/><path class="b" d="M77.545,50.938a8.844,8.844,0,0,1-1.771-5.379,8.534,8.534,0,0,1,1.8-5.767L75.476,38.68a11,11,0,0,0-2.095,6.879,11.249,11.249,0,0,0,2.056,6.465Z" transform="translate(212.328 44.048)"/><path class="b" d="M78.507,37.945a1.539,1.539,0,1,1-1.539-1.565,1.539,1.539,0,0,1,1.539,1.565" transform="translate(212.931 43.374)"/><path class="b" d="M29.177,7.436a54.8,54.8,0,0,0-5.728,2.5A9.517,9.517,0,0,0,20.617,12.1c-.207.259-.517.556-.4.892s.621.207.918.207l13.706.065c4.513,0,9.051,0,13.577.065,1.112,0,1.293-.336,1.073-1.293-.31-1.8-.5-3.633-.659-5.469a19.68,19.68,0,0,1,1.5,4.293c.75,2.586.75,2.586,3.388,2.78,6.116.465,12.245.892,18.49,1.358a5.172,5.172,0,0,1-2.133.246c-15.62.155-31.252.582-46.872,0a39.01,39.01,0,0,1-5.625-.491c-.543-.1-1.164-.168-1.293-.8a1.426,1.426,0,0,1,.724-1.4,27.735,27.735,0,0,1,8.159-4.138A14.624,14.624,0,0,1,29.177,7.4" transform="translate(195.593 34.639)"/><path class="a" d="M4.75,22.311c.776-4.771,6.051-8.288,10.706-9.775a1.293,1.293,0,0,0-.129-2.379l-7.137-1.1c.142.737,1.409.866,1.539,1.629,14.34-7.1,29.882-8.857,45.657-6.051s29.52,11.9,45.488,12.93c4.538.3,9.4-.3,13.745,1.293,3.336,1.332,7.6,4.125,7.047,8-.259,1.565.129,1.694.362.1.569-3.646-.091-6.168-2.961-8.366-3.271-2.483-7.28-3.1-11.3-3.271a81.642,81.642,0,0,1-12.672-.97,82.4,82.4,0,0,1-11.935-3.4C75.233,8.165,67.526,4.751,59.315,2.889A78.344,78.344,0,0,0,7.233,9.225c-.944.478-1.875.97-.84,1.009,3.4.091,6.1,1.952,8.4,2.327,0-.8-.091-1.59-.129-2.392A15.516,15.516,0,0,0,4.155,22.259c-.259,1.552-.168,4.073.078,2.483Z" transform="translate(192 33.006)"/></g></svg>