<svg xmlns="http://www.w3.org/2000/svg" width="80" height="30.344" viewBox="0 0 80 30.344"><defs><style>.a,.b{fill:#6c6c6c;}.b{fill-rule:evenodd;}</style></defs><g transform="translate(0.181 24.67)"><path class="a" d="M3.234,193.5l-.055-.3H3.16a1.09,1.09,0,0,1-.865.371.926.926,0,0,1-.976-.926c0-.784.7-1.161,1.772-1.154v-.043c0-.161-.086-.388-.549-.388a1.7,1.7,0,0,0-.833.229l-.173-.605a2.5,2.5,0,0,1,1.173-.266,1.174,1.174,0,0,1,1.327,1.3v1.05a4.757,4.757,0,0,0,.043.734Zm-.111-1.427c-.494-.005-.877.111-.877.475a.338.338,0,0,0,.371.358.514.514,0,0,0,.489-.346.67.67,0,0,0,.018-.161Z" transform="translate(-1.32 -189.112)"/><path class="a" d="M26.61,180.95h.939v4.385H26.61Z" transform="translate(-23.139 -180.95)"/><path class="a" d="M41.849,192.949c0,.4.012.716.025.969h-.815l-.044-.425H41a1.075,1.075,0,0,1-.944.494c-.611,0-1.062-.383-1.062-1.315V190.9h.944v1.624c0,.438.143.7.469.7a.506.506,0,0,0,.469-.328.518.518,0,0,0,.032-.2v-1.8h.944Z" transform="translate(-33.82 -189.534)"/><path class="a" d="M67.2,190.467c-.012.191-.025.445-.025.895v1.685a1.734,1.734,0,0,1-.457,1.359,1.861,1.861,0,0,1-1.228.371,2.345,2.345,0,0,1-1.087-.235l.185-.71a1.861,1.861,0,0,0,.877.229.721.721,0,0,0,.784-.8v-.2h-.012a.963.963,0,0,1-.815.4,1.329,1.329,0,0,1-1.278-1.475,1.444,1.444,0,0,1,1.371-1.586.912.912,0,0,1,.828.425h.012l.032-.358Zm-.963,1.23a.744.744,0,0,0-.018-.173.515.515,0,0,0-.506-.413c-.34,0-.618.309-.618.858,0,.45.222.8.618.8a.51.51,0,0,0,.494-.383.8.8,0,0,0,.032-.247V191.7Z" transform="translate(-55.519 -189.103)"/><path class="a" d="M94.579,192.949c0,.4.012.716.025.969h-.815l-.044-.425h-.018a1.075,1.075,0,0,1-.944.494c-.611,0-1.062-.383-1.062-1.315V190.9h.944v1.624c0,.438.143.7.469.7a.506.506,0,0,0,.469-.328.518.518,0,0,0,.032-.2v-1.8h.944Z" transform="translate(-79.314 -189.534)"/><path class="a" d="M117.775,192.286c.032.388.413.575.852.575a2.632,2.632,0,0,0,.833-.124l.124.635a2.982,2.982,0,0,1-1.092.185,1.448,1.448,0,0,1-1.611-1.537,1.512,1.512,0,0,1,1.525-1.611,1.339,1.339,0,0,1,1.346,1.507,2.2,2.2,0,0,1-.032.371h-1.945Zm1.1-.642a.544.544,0,0,0-.531-.611.616.616,0,0,0-.581.611Z" transform="translate(-101.021 -189.112)"/><path class="a" d="M141.99,180.95h.939v4.385h-.939Z" transform="translate(-122.685 -180.95)"/><path class="a" d="M165.487,180.95v3.483c0,.34.012.7.025.9h-.833l-.043-.445h-.012a1.055,1.055,0,0,1-.944.512,1.386,1.386,0,0,1-1.29-1.549,1.429,1.429,0,0,1,1.352-1.606.923.923,0,0,1,.8.339h.012V180.95h.936Zm-.939,2.643a1.351,1.351,0,0,0-.012-.166.564.564,0,0,0-.549-.464c-.425,0-.649.383-.649.858,0,.512.254.833.642.833a.549.549,0,0,0,.543-.452.767.767,0,0,0,.025-.215Z" transform="translate(-140.285 -180.95)"/><path class="a" d="M190.175,192.286c.032.388.413.575.852.575a2.632,2.632,0,0,0,.833-.124l.124.635a2.982,2.982,0,0,1-1.092.185,1.448,1.448,0,0,1-1.611-1.537,1.512,1.512,0,0,1,1.525-1.611,1.339,1.339,0,0,1,1.346,1.507,2.206,2.206,0,0,1-.032.371h-1.945Zm1.106-.642a.544.544,0,0,0-.531-.611.616.616,0,0,0-.581.611Z" transform="translate(-163.485 -189.112)"/><path class="a" d="M224.749,193.414a2.287,2.287,0,0,1-.84.136,1.464,1.464,0,0,1-1.6-1.544,1.575,1.575,0,0,1,1.729-1.606,2.178,2.178,0,0,1,.716.117l-.148.7a1.278,1.278,0,0,0-.524-.093.847.847,0,0,0,.019,1.692,1.47,1.47,0,0,0,.538-.092Z" transform="translate(-191.982 -189.103)"/><path class="a" d="M244.6,193.5l-.055-.3h-.019a1.09,1.09,0,0,1-.865.371.926.926,0,0,1-.976-.926c0-.784.7-1.161,1.772-1.154v-.043c0-.161-.086-.388-.549-.388a1.7,1.7,0,0,0-.833.229l-.173-.605a2.5,2.5,0,0,1,1.173-.266,1.174,1.174,0,0,1,1.327,1.3v1.05a4.754,4.754,0,0,0,.043.734Zm-.111-1.427c-.494-.005-.877.111-.877.475a.338.338,0,0,0,.371.358.514.514,0,0,0,.489-.346.67.67,0,0,0,.018-.161Z" transform="translate(-209.565 -189.112)"/><path class="a" d="M267.825,191.471c0-.445-.012-.734-.025-.994h.808l.032.556h.025a.886.886,0,0,1,.815-.623.963.963,0,0,1,.2.012v.884a1.338,1.338,0,0,0-.253-.025.6.6,0,0,0-.642.475,1.1,1.1,0,0,0-.019.21V193.5h-.939Z" transform="translate(-231.229 -189.112)"/><path class="a" d="M285.015,191.471c0-.445-.012-.734-.025-.994h.808l.032.556h.025a.886.886,0,0,1,.815-.623.963.963,0,0,1,.2.012v.884a1.338,1.338,0,0,0-.253-.025.6.6,0,0,0-.642.475,1.1,1.1,0,0,0-.019.21V193.5h-.939Z" transform="translate(-246.059 -189.112)"/><path class="a" d="M303.905,191.944a1.515,1.515,0,0,1-1.593,1.611A1.478,1.478,0,0,1,300.75,192a1.507,1.507,0,0,1,1.611-1.6A1.468,1.468,0,0,1,303.905,191.944Zm-2.186.03c0,.519.216.907.618.907.365,0,.6-.365.6-.907,0-.452-.173-.907-.6-.907C301.885,191.067,301.719,191.529,301.719,191.974Z" transform="translate(-259.656 -189.103)"/><path class="a" d="M326.949,192.674a1.826,1.826,0,0,0,.81.229c.284,0,.4-.1.4-.253s-.092-.229-.445-.346c-.623-.21-.865-.549-.858-.907,0-.561.482-.988,1.228-.988a2.018,2.018,0,0,1,.852.173l-.167.649a1.482,1.482,0,0,0-.655-.173c-.229,0-.358.093-.358.247s.117.215.487.346c.575.2.815.489.821.932,0,.561-.445.976-1.309.976a2.14,2.14,0,0,1-.976-.21Z" transform="translate(-282.114 -189.112)"/></g><g transform="translate(0 0)"><g transform="translate(0 0)"><path class="b" d="M397.756,37.005a4.163,4.163,0,0,1-.053.816,2.009,2.009,0,0,1-2.009,1.685,2.386,2.386,0,0,1-2.38-2.692c0-1.489.752-2.762,2.4-2.762a2.032,2.032,0,0,1,2.012,1.679,3.467,3.467,0,0,1,.027.53v.744Zm0-11.405v6.241H397.7a4.02,4.02,0,0,0-3.269-1.146c-3.055,0-5.818,2.348-5.794,6.289,0,3.938,2.716,6.1,5.5,6.1a4.456,4.456,0,0,0,3.981-1.993h.047l.17,1.7h4.094c-.045-.628-.1-2.186-.1-3.724V25.6Z" transform="translate(-335.647 -22.087)"/><path class="b" d="M505.261,70.554a2.9,2.9,0,0,1-.048.656,1.757,1.757,0,0,1-1.622,1.235c-.847,0-1.313-.386-1.313-1.065,0-.969.968-1.482,2.984-1.482v.656Zm4.415-2.227c0-3.2-1.747-5.256-5.842-5.256a11.361,11.361,0,0,0-5.212,1.109l.8,2.864a8.269,8.269,0,0,1,3.611-.95c1.8,0,2.088.537,2.088.973v.07c-4.513,0-7.371,1.478-7.371,4.68a3.873,3.873,0,0,0,4.169,3.759,4.485,4.485,0,0,0,3.493-1.313h.092l.246,1.021h4.12a17.4,17.4,0,0,1-.189-2.959v-4Z" transform="translate(-429.87 -54.578)"/><path class="b" d="M.095,65.768c0-1.7-.048-3.081-.095-4.147H3.8l.17,1.525h.1A4.32,4.32,0,0,1,7.8,61.331a3.543,3.543,0,0,1,3.413,2.011h.048a5.362,5.362,0,0,1,1.773-1.5,4.8,4.8,0,0,1,2.252-.511c2.64,0,4.34,1.843,4.34,5.332v6.883H15.218v-6.2c0-1.549-.535-2.374-1.574-2.374a1.5,1.5,0,0,0-1.456,1.09,3.194,3.194,0,0,0-.121.922v6.567H7.658v-6.2c0-1.549-.534-2.374-1.576-2.374a1.543,1.543,0,0,0-1.453,1.068,2.35,2.35,0,0,0-.124.892v6.618H.095V65.768Z" transform="translate(0 -53.023)"/><path class="b" d="M156.529,70.678c-1.478,0-2.159-1.378-2.159-3.08,0-1.547.585-3.074,2.182-3.074,1.456,0,2.085,1.407,2.085,3.074,0,1.987-.778,3.08-2.085,3.08Zm-.047,3.178c3.829,0,6.957-2.326,6.957-6.4,0-3.582-2.741-6.1-6.692-6.1-4.582,0-7.127,2.717-7.127,6.349,0,3.925,3.128,6.158,6.837,6.158Z" transform="translate(-129.219 -53.042)"/><path class="b" d="M250.543,63.45l1.5,5.163a22.47,22.47,0,0,1,.583,2.594h.1c.145-.874.29-1.673.531-2.594l1.357-5.163h4.9l-4.706,11.925h-4.7L245.55,63.45Z" transform="translate(-212.069 -54.853)"/><path class="b" d="M355.454,51.2a13.2,13.2,0,0,1-2.731-8.048c0-3.345.7-6.39,2.752-8.719l-3.269-1.751c-2.277,2.875-3.146,6.513-3.146,10.47a16.806,16.806,0,0,0,3.146,9.817l3.248-1.769Z" transform="translate(-301.434 -28.358)"/><path class="b" d="M383.386,2.355A2.358,2.358,0,1,1,381.029,0a2.362,2.362,0,0,1,2.356,2.355Z" transform="translate(-326.997 0)"/></g></g></svg>