<svg xmlns="http://www.w3.org/2000/svg" width="30.788" height="28.872" viewBox="0 0 30.788 28.872"><defs><style>.a{fill:#fff;}.b{fill:#f97d00;fill-rule:evenodd;}</style></defs><rect class="a" width="30.788" height="28.872" transform="translate(0)"/><path class="b" d="M71.37,76.452c.516-.016,1.032,0,1.55,0h.212v-2.52c-.275-.026-.564-.063-.853-.076-.53-.022-1.06-.047-1.591-.036a4.089,4.089,0,0,0-2.245.651,3.13,3.13,0,0,0-1.349,2.1A7.037,7.037,0,0,0,67,77.652c-.014.565,0,1.13,0,1.7v.212h-2.57v2.814h2.555v7.074h3.123V82.386h2.548c.131-.936.258-1.863.392-2.828h-.573c-.725,0-2.388,0-2.388,0s.007-1.394.025-2C70.137,76.729,70.661,76.476,71.37,76.452Z" transform="translate(-53.387 -67.165)"/></svg>