<svg xmlns="http://www.w3.org/2000/svg" width="30.788" height="28.872" viewBox="0 0 30.788 28.872"><defs><style>.a{fill:#fff;}.b{fill:#f97d00;fill-rule:evenodd;}</style></defs><rect class="a" width="30.788" height="28.872"/><path class="b" d="M149.677,151.49H139.234a2.3,2.3,0,0,0-2.375,2.228v9.793a2.305,2.305,0,0,0,2.375,2.228h10.443a2.306,2.306,0,0,0,2.377-2.228v-9.793A2.306,2.306,0,0,0,149.677,151.49Zm-1.967,1.965a.41.41,0,0,1,.423-.4h1.835a.41.41,0,0,1,.423.4v1.721a.411.411,0,0,1-.423.4h-1.835a.41.41,0,0,1-.423-.4Zm-6.055,4.131a3.084,3.084,0,0,1,5.6,0,2.638,2.638,0,0,1,.209,1.028,3.015,3.015,0,0,1-6.017,0A2.636,2.636,0,0,1,141.654,157.586Zm8.79,5.925a.745.745,0,0,1-.768.718H139.234a.744.744,0,0,1-.766-.718v-5.925h1.5a4.046,4.046,0,0,0-.131,1.028,4.628,4.628,0,0,0,9.237,0,4.046,4.046,0,0,0-.131-1.028h1.5Z" transform="translate(-129.062 -144.178)"/></svg>