<svg xmlns="http://www.w3.org/2000/svg" width="30.788" height="28.872" viewBox="0 0 30.788 28.872"><defs><style>.a{fill:#fff;}.b{fill:#f97d00;fill-rule:evenodd;}</style></defs><rect class="a" width="30.788" height="28.872" transform="translate(0)"/><path class="b" d="M62.2,125.443a1.95,1.95,0,0,1-1.323-1.206c-.574-1.478-.743-7.66.36-8.877a2.181,2.181,0,0,1,1.441-.719c2.974-.3,12.163-.257,13.223.1a2.015,2.015,0,0,1,1.3,1.173c.628,1.527.649,7.086-.082,8.558a1.956,1.956,0,0,1-.933.882C75.077,125.9,63.659,125.894,62.2,125.443Zm4.724-2.9,5.355-2.6-5.355-2.62Z" transform="translate(-53.653 -105.671)"/></svg>