<svg xmlns="http://www.w3.org/2000/svg" width="76.61" height="32.713" viewBox="0 0 76.61 32.713"><defs><style>.a,.b{fill:#6c6c6c;}.b{fill-rule:evenodd;}</style></defs><g transform="translate(0)"><path class="a" d="M36.33,19.744c-.217,2.488-.309,7.112,2.757,8.153,1.942.658,4.7.132,6.716.132,1.577,0,5.73.749,5.524-2.007-.217-2.892-4.662-3.991-6.856-3.489-5.569,1.274-6.528,9.951-1.276,12.313a6.213,6.213,0,0,0,7.226-1.6c1.453-1.816,1.167-4.533,4.056-4.609,6.194-.163,12.413,0,18.61,0l-.684-.521c.74,4.1,3.47,8.4,8.191,7.509,2.433-.462,3.942-2.511,4.647-4.765.2-.639.228-1.676.929-1.946a8.005,8.005,0,0,1,1.317.122,11.805,11.805,0,0,0,2.322-.415c2.076-.52,2.931-1.548,3.253-3.719a19.619,19.619,0,0,0-.269-6.731c-.429-2-2.3-2.809-4.116-3.365-2.775-.849-5.7-1.012-8.478-1.9-1.879-.6-2.868-1.6-4.428-2.848a41.94,41.94,0,0,0-5.58-3.837A17.146,17.146,0,0,0,65.283,4.13c-.893-.172-1.275,1.2-.378,1.37,4.392.847,8.578,4.4,11.821,7.2,3.167,2.732,7.971,2.285,11.791,3.539,2.329.764,2.9,1.754,3.12,4,.178,1.819.75,5.633-1.129,6.71a7.886,7.886,0,0,1-3.023.664c-.712.023-1.472-.311-2.168-.036-1.25.494-1.162,2.136-1.553,3.223-.776,2.161-2.534,3.785-4.936,3.489-3.254-.4-4.547-3.726-5.057-6.552a.715.715,0,0,0-.684-.521H59.764c-3.032,0-8-1.029-9.355,2.6-.984,2.623-2.33,4.649-5.673,4.038a4.949,4.949,0,0,1-3.659-5.314,5.086,5.086,0,0,1,4.795-4.721,4.341,4.341,0,0,1,3.505,1.541c1.1,1.548-.208,1.256-1.333,1.256-2.62,0-5.607.414-8.193,0a1.884,1.884,0,0,1-1.036-.6c-1.488-1.544-1.234-4.342-1.065-6.27.079-.91-1.341-.9-1.42,0" transform="translate(-16.626 -3.026)"/><path class="b" d="M67.877,6.181v4.013h-.031a2.542,2.542,0,0,0-2.083-.741A3.744,3.744,0,0,0,62.075,13.5a3.6,3.6,0,0,0,3.5,3.92,2.818,2.818,0,0,0,2.531-1.281h.031l.108,1.1h2.608c-.031-.4-.061-1.405-.061-2.392V6.181Zm0,7.329a3.034,3.034,0,0,1-.031.526,1.287,1.287,0,0,1-1.281,1.079,1.524,1.524,0,0,1-1.512-1.728c0-.957.479-1.774,1.528-1.774a1.3,1.3,0,0,1,1.281,1.08,2.5,2.5,0,0,1,.016.341Z" transform="translate(-28.12 -3.945)"/><path class="b" d="M86.837,15.423c0-2.037-1.111-3.348-3.718-3.348a7.189,7.189,0,0,0-3.318.709l.51,1.821a5.28,5.28,0,0,1,2.3-.6c1.142,0,1.327.34,1.327.617v.047c-2.869,0-4.69.941-4.69,2.978A2.463,2.463,0,0,0,81.9,20.036,2.859,2.859,0,0,0,84.12,19.2h.062l.154.648h2.623a10.785,10.785,0,0,1-.123-1.882Zm-2.809,1.42a1.849,1.849,0,0,1-.031.416,1.122,1.122,0,0,1-1.034.787c-.539,0-.833-.246-.833-.679,0-.617.616-.94,1.9-.94Z" transform="translate(-35.758 -6.567)"/><path class="b" d="M.974,14.63c0-1.081-.031-1.96-.063-2.639H3.334l.108.972H3.5A2.742,2.742,0,0,1,5.88,11.806a2.262,2.262,0,0,1,2.176,1.281h.031a3.441,3.441,0,0,1,1.128-.958,3.076,3.076,0,0,1,1.435-.324c1.682,0,2.762,1.172,2.762,3.395v4.382H10.6V15.632c0-.987-.339-1.511-1-1.511a.956.956,0,0,0-.926.694A2.068,2.068,0,0,0,8.6,15.4v4.182H5.788V15.632c0-.987-.34-1.511-1-1.511a.985.985,0,0,0-.926.678,1.54,1.54,0,0,0-.077.571v4.212H.974Z" transform="translate(-0.911 -6.447)"/><path class="b" d="M28.826,19.768c2.438,0,4.427-1.481,4.427-4.073,0-2.283-1.743-3.888-4.257-3.888-2.917,0-4.537,1.728-4.537,4.042,0,2.5,1.991,3.919,4.352,3.919Zm.031-2.021c-.941,0-1.373-.879-1.373-1.959,0-.988.37-1.96,1.389-1.96.925,0,1.327.894,1.327,1.96,0,1.264-.494,1.959-1.327,1.959Z" transform="translate(-11.386 -6.448)"/><path class="b" d="M42.731,12.139l.957,3.287a14.609,14.609,0,0,1,.37,1.651h.062c.092-.556.185-1.064.339-1.651l.864-3.287H48.44l-2.993,7.592H42.453l-2.9-7.592Z" transform="translate(-18.1 -6.595)"/><path class="b" d="M59.917,19.08a8.384,8.384,0,0,1-1.738-5.121A8.118,8.118,0,0,1,59.927,8.41L57.849,7.292a10.472,10.472,0,0,0-2,6.667,10.7,10.7,0,0,0,2,6.251Z" transform="translate(-25.349 -4.439)"/><path class="b" d="M63.506,3.655a1.5,1.5,0,1,1-1.5-1.5,1.5,1.5,0,0,1,1.5,1.5" transform="translate(-27.421 -2.153)"/><g transform="translate(36.881 16.38)"><path class="a" d="M71.357,34.647c-.021-.556-.041-1.227-.041-1.9H71.3c-.144.59-.336,1.248-.515,1.79l-.562,1.8H69.4l-.494-1.789c-.151-.542-.309-1.2-.419-1.8h-.014c-.027.624-.048,1.337-.082,1.913l-.082,1.755h-.967l.295-4.621h1.392l.452,1.543c.144.535.288,1.11.391,1.652H69.9c.13-.535.288-1.145.439-1.659l.494-1.536h1.365l.254,4.621H71.426Z" transform="translate(-67.346 -31.719)"/><path class="a" d="M80.729,34.462h-1.7v1.1h1.9v.857H77.979V31.795h2.853v.857h-1.8v.96h1.7Z" transform="translate(-72.076 -31.719)"/><path class="a" d="M84.575,36.416V31.795H85.8l.96,1.693a13.388,13.388,0,0,1,.754,1.584h.021a17.085,17.085,0,0,1-.089-1.926V31.795h.96v4.621H87.3l-.988-1.783a17.066,17.066,0,0,1-.8-1.632l-.021.007c.027.61.041,1.262.041,2.016v1.392Z" transform="translate(-75.01 -31.719)"/><path class="a" d="M92.988,35.279a2.664,2.664,0,0,0,1.159.288c.48,0,.733-.2.733-.5s-.219-.452-.774-.651c-.768-.268-1.269-.693-1.269-1.365,0-.788.658-1.392,1.748-1.392a2.836,2.836,0,0,1,1.18.233l-.233.844a2.2,2.2,0,0,0-.967-.219c-.452,0-.672.205-.672.445,0,.3.26.425.857.652.816.3,1.2.727,1.2,1.378,0,.775-.6,1.433-1.865,1.433a3.017,3.017,0,0,1-1.309-.281Z" transform="translate(-78.659 -31.659)"/><path class="a" d="M100.573,35.23l-.329,1.186H99.161l1.412-4.621h1.372l1.433,4.621h-1.125L101.9,35.23Zm1.172-.782-.288-.98c-.083-.274-.165-.617-.233-.891h-.014c-.069.274-.137.624-.213.891l-.274.98Z" transform="translate(-81.499 -31.719)"/><path class="a" d="M107.868,31.795h1.049v3.743h1.838v.878h-2.887Z" transform="translate(-85.372 -31.719)"/></g><path class="a" d="M115.421,36.52l.476-2.526h-.391l.078-.392h.392l.018-.126a1.623,1.623,0,0,1,.567-1.025,1.5,1.5,0,0,1,.9-.277,1.661,1.661,0,0,1,.8.187l-.79,4.16h-.5l.735-3.864a.749.749,0,0,0-.386-.073c-.482,0-.735.374-.826.862l-.031.157h.615l-.078.392h-.615l-.476,2.526Zm5.034-.169a2.013,2.013,0,0,1-.965.229,1.051,1.051,0,0,1-1.11-1.169,1.808,1.808,0,0,1,1.592-1.875.758.758,0,0,1,.856.748c0,.766-.862.97-1.941.952a1.21,1.21,0,0,0,.06.555.664.664,0,0,0,.651.392,1.632,1.632,0,0,0,.784-.2Zm-.555-2.424c-.476,0-.832.464-.953.922.784.006,1.4-.1,1.4-.548C120.346,34.06,120.165,33.927,119.9,33.927Zm1.935-.326.284.64c.078.187.138.331.193.464h.018c.114-.163.175-.259.319-.44l.537-.663h.579l-1.23,1.423.687,1.5h-.543l-.3-.657c-.1-.217-.138-.331-.211-.519h-.012c-.09.139-.175.271-.3.446l-.591.729h-.579l1.278-1.5-.675-1.417Z" transform="translate(-51.851 -15.507)"/></g></svg>