<svg xmlns="http://www.w3.org/2000/svg" width="80.386" height="31.548" viewBox="0 0 80.386 31.548"><defs><style>.a,.b{fill:#6c6c6c;}.b{fill-rule:evenodd;}</style></defs><g transform="translate(18369 -5862.434)"><path class="a" d="M258.815,332.162v-4.167h-.729v-1.528h.729v-.185a2.592,2.592,0,0,1,.741-1.876,2.452,2.452,0,0,1,1.655-.59,4.371,4.371,0,0,1,.961.1l-.035,1.6a2.422,2.422,0,0,0-.533-.058.683.683,0,0,0-.718.73v.277h1.042v1.528h-1.019v4.167Z" transform="translate(-18626.729 5561.693)"/><path class="a" d="M288.591,336.932c0-.9-.012-1.447-.046-1.922h1.783l.081,1.031h.046a1.625,1.625,0,0,1,1.517-1.158,1.571,1.571,0,0,1,.417.034v1.956a2.278,2.278,0,0,0-.532-.058,1.044,1.044,0,0,0-1.146.718,2.925,2.925,0,0,0-.023.359v2.813h-2.1Z" transform="translate(-18650.242 5553.149)"/><path class="a" d="M320.757,340.832a2.819,2.819,0,0,1-3.022-2.929,2.877,2.877,0,0,1,3.137-3.022,2.8,2.8,0,0,1,2.964,2.917,2.877,2.877,0,0,1-3.068,3.033Zm.058-1.47c.567,0,.868-.59.868-1.505,0-.787-.255-1.5-.868-1.5-.695,0-.926.753-.926,1.5,0,.857.278,1.505.915,1.505Z" transform="translate(-18672.775 5553.15)"/><path class="a" d="M359.771,328.333v1.621h1.181v1.528h-1.181v1.632c0,.671.151.949.66.949a1.582,1.582,0,0,0,.5-.046V335.6a3.945,3.945,0,0,1-1.239.162,2.023,2.023,0,0,1-1.424-.521,2.4,2.4,0,0,1-.532-1.771v-1.991h-.706v-1.528h.706v-1.065Z" transform="translate(-18703.107 5558.206)"/><path class="a" d="M392.537,339.316a8.3,8.3,0,0,0,.093,1.389h-1.887l-.1-.5h-.047a2,2,0,0,1-1.574.625,1.79,1.79,0,0,1-1.887-1.794c0-1.528,1.378-2.211,3.311-2.211v-.046c0-.232-.174-.486-.938-.486a3.614,3.614,0,0,0-1.609.417l-.359-1.308a5.067,5.067,0,0,1,2.362-.521c1.956,0,2.639,1.088,2.639,2.512Zm-2.026-1.216c-.857,0-1.331.232-1.331.741a.519.519,0,0,0,.59.544.78.78,0,0,0,.718-.521,1.267,1.267,0,0,0,.023-.3Z" transform="translate(-18726.346 5553.15)"/><path class="a" d="M425.614,338.945a3.752,3.752,0,0,0,1.574.428c.452,0,.625-.093.625-.313s-.128-.289-.741-.486c-1.262-.394-1.69-1.077-1.678-1.736,0-1.134.972-1.956,2.478-1.956a4.453,4.453,0,0,1,1.69.324l-.336,1.412a3.3,3.3,0,0,0-1.262-.313c-.359,0-.567.093-.567.324,0,.185.185.3.857.521,1.123.359,1.551.949,1.563,1.76,0,1.088-.845,1.91-2.6,1.91a4.482,4.482,0,0,1-1.957-.405Z" transform="translate(-18755.775 5553.15)"/><path class="b" d="M499.4,249.533a4.226,4.226,0,0,1-.054.823,2.015,2.015,0,0,1-2.008,1.7c-1.381,0-2.379-.995-2.379-2.716,0-1.5.752-2.785,2.4-2.785a2.036,2.036,0,0,1,2.011,1.693,3.6,3.6,0,0,1,.027.535Zm0-11.506v6.3h-.054a4,4,0,0,0-3.268-1.156c-3.053,0-5.815,2.369-5.792,6.344,0,3.973,2.715,6.155,5.5,6.155a4.438,4.438,0,0,0,3.979-2.011h.047l.17,1.719h4.091c-.045-.633-.1-2.206-.1-3.757v-13.59Z" transform="translate(-18805.979 5627.918)"/><path class="b" d="M563.425,268.048a2.875,2.875,0,0,1-.048.656,1.755,1.755,0,0,1-1.621,1.234c-.846,0-1.312-.386-1.312-1.064,0-.968.967-1.481,2.982-1.481Zm4.412-2.226c0-3.2-1.746-5.254-5.84-5.254a11.347,11.347,0,0,0-5.211,1.109l.8,2.862a8.256,8.256,0,0,1,3.609-.95c1.794,0,2.085.537,2.085.973v.07c-4.51,0-7.367,1.477-7.367,4.678a3.87,3.87,0,0,0,4.166,3.757,4.486,4.486,0,0,0,3.491-1.312h.091l.245,1.021h4.117a17.324,17.324,0,0,1-.19-2.958Z" transform="translate(-18856.641 5610.517)"/><path class="b" d="M256.612,263.965c0-1.7-.047-3.079-.094-4.144h3.8l.171,1.524h.1a4.32,4.32,0,0,1,3.731-1.813,3.541,3.541,0,0,1,3.411,2.01h.049a5.332,5.332,0,0,1,1.773-1.5,4.793,4.793,0,0,1,2.251-.51c2.639,0,4.337,1.842,4.337,5.328v6.88h-4.408v-6.2c0-1.549-.535-2.373-1.574-2.373a1.5,1.5,0,0,0-1.456,1.089,3.206,3.206,0,0,0-.121.922v6.564h-4.409v-6.2c0-1.549-.533-2.373-1.574-2.373a1.541,1.541,0,0,0-1.452,1.067,2.353,2.353,0,0,0-.123.892v6.615h-4.41Z" transform="translate(-18625.518 5611.317)"/><path class="b" d="M353.423,268.856c-1.478,0-2.157-1.377-2.157-3.078,0-1.545.584-3.073,2.181-3.073,1.456,0,2.083,1.406,2.083,3.073,0,1.987-.778,3.078-2.083,3.078Zm-.047,3.176c3.827,0,6.954-2.326,6.954-6.4,0-3.58-2.739-6.1-6.689-6.1-4.58,0-7.123,2.715-7.123,6.346,0,3.923,3.125,6.154,6.834,6.154Z" transform="translate(-18694.994 5611.317)"/><path class="b" d="M409.2,260.8l1.5,5.16a22.347,22.347,0,0,1,.583,2.593h.1c.146-.874.29-1.672.53-2.593l1.357-5.16h4.9l-4.7,11.919h-4.7L404.211,260.8Z" transform="translate(-18739.531 5610.339)"/><path class="b" d="M472.878,260.793a13.2,13.2,0,0,1-2.73-8.044c0-3.343.7-6.387,2.75-8.715l-3.267-1.751c-2.275,2.874-3.144,6.51-3.144,10.465a16.793,16.793,0,0,0,3.144,9.812Z" transform="translate(-18787.605 5624.632)"/><path class="b" d="M489.01,224.984a2.357,2.357,0,1,1-2.356-2.353,2.36,2.36,0,0,1,2.356,2.353" transform="translate(-18801.354 5639.803)"/></g></svg>