<svg xmlns="http://www.w3.org/2000/svg" width="18.425" height="16" viewBox="0 0 18.425 16"><defs><style>.a,.c{fill:#f97d00;}.b,.e{fill:none;}.b,.c{stroke:#f97d00;}.d{stroke:none;}</style></defs><path class="a" d="M375.779,4.041c1.29,1.134,4.154.376,4.154.376L377.71,0h-2.883S374.489,2.908,375.779,4.041Zm-.569.341" transform="translate(-361.507)"/><path class="a" d="M27.2,4.61,24.844,0H11.775L9.708,4.42Zm-2.873-.19" transform="translate(-9.708)"/><path class="a" d="M271,5" transform="translate(-261.285 -1.716)"/><path class="a" d="M13.542,120.27a2.679,2.679,0,0,0,2.167,1.119,2.751,2.751,0,0,0,2.707-2.788H0a2.751,2.751,0,0,0,2.707,2.788,2.65,2.65,0,0,0,1.914-.816,2.816,2.816,0,0,0,.254-.3,2.657,2.657,0,0,0,4.333,0,2.657,2.657,0,0,0,4.334,0Zm0,0" transform="translate(0 -114.208)"/><g class="b" transform="translate(0.805 4.179)"><rect class="d" width="16.564" height="11.821"/><rect class="e" x="0.5" y="0.5" width="15.564" height="10.821"/></g><g class="c" transform="translate(3 9)"><path class="d" d="M2,0H4A2,2,0,0,1,6,2V7A0,0,0,0,1,6,7H0A0,0,0,0,1,0,7V2A2,2,0,0,1,2,0Z"/><path class="e" d="M2,.5H4A1.5,1.5,0,0,1,5.5,2V6a.5.5,0,0,1-.5.5H1A.5.5,0,0,1,.5,6V2A1.5,1.5,0,0,1,2,.5Z"/></g><g class="c" transform="translate(11 9)"><rect class="d" width="4" height="4"/><rect class="e" x="0.5" y="0.5" width="3" height="3"/></g></svg>